<svg xmlns="http://www.w3.org/2000/svg" viewBox="0 0 1080 700" font-family="Helvetica, Arial, sans-serif">
  <style>
    text{font-family:Helvetica,Arial,sans-serif;fill:#1a1a1a}
    .net{font-size:13px;font-weight:700;fill:#7a4a1f;letter-spacing:0.5px}
    .ref{font-size:12px;font-weight:700;fill:#0d47a1}
    .note{font-size:13px;fill:#455a64}
    .ttl{font-size:22px;font-weight:700;fill:#123a5f}
    .warn{font-size:13px;font-weight:700;fill:#b71c1c}
    .cu{fill:#eac9a2;stroke:#b98a5a;stroke-width:1.5}
    .ghost{fill:none;stroke:#1565c0;stroke-width:1.5;stroke-dasharray:5 4}
    .dim{stroke:#78909c;stroke-width:1.3}
  </style>
  <defs>
    <g id="pd"><circle r="7" fill="#5d4037"/><circle r="2.6" fill="#fff"/></g>
    <g id="pdL"><circle r="9" fill="#5d4037"/><circle r="3.2" fill="#fff"/></g>
    <g id="pdS"><circle r="5.5" fill="#5d4037"/><circle r="2.2" fill="#fff"/></g>
    <marker id="adj" markerWidth="8" markerHeight="8" refX="4" refY="4" orient="auto"><path d="M0,4 L8,4 M4,0 L4,8" stroke="#78909c"/></marker>
  </defs>
  <rect width="1080" height="700" fill="#fff"/>
  <text x="60" y="40" class="ttl">JIG-1 — V_GS Matching Jig Board · copper plan (COMPONENT side)</text>
  <text x="60" y="62" class="note">The Fig. 4 circuit as copper. 3 nets: VIN+ &#183; DG (drain+gate tied on copper = &#8220;diode-connected&#8221;) &#183; SRC/GND sea. DUT stays OFF-board on its heatsink.</text>

  <!-- dims -->
  <path class="dim" d="M100,120 H660" marker-start="url(#adj)" marker-end="url(#adj)"/>
  <text x="380" y="114" class="note" text-anchor="middle">70 mm</text>
  <path class="dim" d="M84,140 V460" marker-start="url(#adj)" marker-end="url(#adj)"/>
  <text x="76" y="300" class="note" text-anchor="end" transform="rotate(-90 76 300)">40 mm</text>

  <!-- board = SRC/GND sea -->
  <rect x="100" y="140" width="560" height="320" rx="4" class="cu" stroke="#37474f" stroke-width="2.5"/>
  <text x="120" y="410" class="net">SRC / GND (sea)</text>

  <!-- milled gaps (white) then islands -->
  <rect x="127.6" y="223.6" width="105" height="89" fill="#fff"/>
  <rect x="132" y="228" width="96" height="80" rx="3" class="cu"/>
  <text x="138" y="244" class="net" font-size="11.5">VIN+</text>
  <rect x="527.6" y="223.6" width="89" height="161" fill="#fff"/>
  <rect x="532" y="228" width="80" height="152" rx="3" class="cu"/>
  <text x="538" y="244" class="net" font-size="11.5">DG</text>

  <!-- pads -->
  <use href="#pd" x="164" y="268"/><use href="#pd" x="596" y="268"/>
  <use href="#pdL" x="196" y="244"/><text x="196" y="222" class="ref" text-anchor="middle">VIN+ (12 V)</text>
  <use href="#pdL" x="196" y="364"/><text x="196" y="390" class="ref" text-anchor="middle">VIN&#8722;</text>
  <use href="#pdL" x="452" y="364"/><text x="452" y="390" class="ref" text-anchor="middle">SRC lead</text>
  <use href="#pdL" x="564" y="356"/><text x="552" y="342" class="ref" text-anchor="end">DRAIN lead</text>
  <use href="#pdL" x="596" y="356"/><text x="596" y="378" class="ref" text-anchor="middle">GATE lead</text>
  <use href="#pdS" x="572" y="308"/><use href="#pdS" x="572" y="332"/>
  <text x="590" y="324" class="ref">TP V+</text>
  <use href="#pdS" x="308" y="364"/><use href="#pdS" x="340" y="364"/>
  <text x="324" y="346" class="ref" text-anchor="middle">TP V&#8722;</text>
  <!-- M3 -->
  <use href="#pdL" x="140" y="420"/><use href="#pdL" x="620" y="420"/><use href="#pdL" x="140" y="180"/><use href="#pdL" x="620" y="180"/>
  <text x="140" y="444" class="note" text-anchor="middle" font-size="11">M3 &#215;4</text>

  <!-- R_j ghost -->
  <rect class="ghost" x="202" y="236" width="356" height="64" rx="14"/>
  <text x="380" y="260" class="ref" text-anchor="middle">R_j — Ohmite TWW10J6R8E (6.8 &#937; 10 W)</text>
  <text x="380" y="278" class="note" text-anchor="middle" font-size="11.5">body &#8776;44.5 &#215; 8 mm — mount 3&#8211;5 mm proud, it runs HOT at 10.6 W</text>

  <!-- off-board ghosts -->
  <path class="ghost" d="M660,356 C720,356 740,330 780,320"/>
  <path class="ghost" d="M612,368 C700,400 740,380 780,352"/>
  <path class="ghost" d="M452,372 C520,430 700,430 786,384"/>
  <rect x="780" y="290" width="200" height="130" rx="8" fill="#f5f7fa" stroke="#78909c" stroke-width="1.6"/>
  <text x="880" y="316" class="ref" text-anchor="middle">DUT — IRFP150N</text>
  <text x="880" y="334" class="note" text-anchor="middle" font-size="12">on scrap heatsink,</text>
  <text x="880" y="350" class="note" text-anchor="middle" font-size="12">OFF-board (makes ~4.5 W)</text>
  <text x="880" y="372" class="note" text-anchor="middle" font-size="12">leads: GATE / DRAIN / SRC</text>
  <text x="880" y="388" class="note" text-anchor="middle" font-size="12">&#8804;150 mm, drain+gate twisted</text>
  <path class="ghost" d="M196,232 C196,180 240,164 300,160"/>
  <text x="340" y="164" class="note" font-size="12">to 12 V supply (+) — twisted pair with VIN&#8722;</text>

  <!-- net explanation -->
  <rect x="60" y="490" width="1010" height="130" rx="9" fill="#f5f7fa" stroke="#b0bec5"/>
  <text x="76" y="516" class="note"><tspan font-weight="700">Nets:</tspan> VIN+ &#8594; R_j &#8594; DG. The DG island ties DUT drain and gate in copper (the &#8220;diode-connect&#8221; jumper of Fig. 4 — one clip lead eliminated, one failure mode eliminated).</text>
  <text x="76" y="536" class="note">SRC/GND sea carries the DUT source return and the supply return. DMM clips onto the TP V+ / TP V&#8722; wire loops: reading = V_GS at &#8776;1.2 A (expect 3.1&#8211;4.1 V).</text>
  <text x="76" y="556" class="note"><tspan font-weight="700">Why a sea + islands:</tspan> identical construction to the real PSU/channel milling plans (Fig. 9/10) — this board rehearses every skill Phase B needs, at 1/10 the stakes.</text>
  <text x="76" y="580" class="warn">Verify before drilling: your TWW10J6R8E body must be &#8804;47 mm (pad pitch is 54 mm). Measure the physical part — datasheet says 44.5 mm.</text>
  <text x="76" y="600" class="note">Board: 70 &#215; 40 mm, single-sided FR4 1.6 mm. Drills: 1.0 (TP), 1.2 (R_j), 1.6 (wire pads), 3.2 (M3). Isolation gap &#8776;0.55 mm (two V-bit passes).</text>

  <text x="60" y="656" font-size="13" fill="#37474f">SONUS MINIMAL &#183; pcb-milling-exercise &#183; JIG-1 rev A &#183; 2026-07-05 &#183; companion: LABBOOK Phase A, Fig. 4</text>
</svg>
